# xmcd
#
# Track frame offsets:
#	150
#	17925
#	33337
#	55962
#	71350
#	86887
#	107162
#	126712
#	148162
#	167537
#	187762
#	207775
#	223087
#	331275
#	342987
#
# Disc length: 4620 seconds
# Revision: 3
# Processed by: cddbd v1.5.2PL0 Copyright (c) Steve Scherf et al.
# Submitted via: dBpowerAMP V12.0
#
DISCID=e5120a0f
DTITLE=SHeDAISY - [2002] Knock On The Sky
DYEAR=2002
DGENRE=Country
TTITLE0=Mine All Mine
TTITLE1=I'm Lit
TTITLE2=Man Goin' Down
TTITLE3=Get Over Yourself
TTITLE4=Rush
TTITLE5=I Wish I Were The Rain
TTITLE6=Repent
TTITLE7=Everybody Wants You
TTITLE8=Now
TTITLE9=All Over You
TTITLE10=The First To Let Go
TTITLE11=Turn Me On
TTITLE12=Keep Me - (in case you find it...) Knock On The Sky
TTITLE13=[space]
TTITLE14=DATA
EXTD=
EXTT0=
EXTT1=
EXTT2=
EXTT3=
EXTT4=
EXTT5=
EXTT6=
EXTT7=
EXTT8=
EXTT9=
EXTT10=
EXTT11=
EXTT12=
EXTT13=
EXTT14=
PLAYORDER=
